<mxfile host="app.diagrams.net" modified="2024-02-21T06:57:48.038Z" agent="Mozilla/5.0 (Windows NT 10.0; Win64; x64) AppleWebKit/537.36 (KHTML, like Gecko) Chrome/121.0.0.0 Safari/537.36" version="23.0.1" etag="QGH0RkhY4dFKp78k-jJl" type="github">
  <diagram name="第 1 页" id="tfmXkASfDuLrXoNh-b1x">
    <mxGraphModel>
      <root>
        <mxCell id="0" />
        <mxCell id="1" parent="0" />
      </root>
    </mxGraphModel>
  </diagram>
</mxfile>
